Coordinates
version=1
nRows=19
nColumns=24
inDegrees=yes

Units are S.I. units (second, meters, Newtons, ...)
Angles are in degrees.

endheader
time	pelvis_tilt	pelvis_list	pelvis_rotation	pelvis_tx	pelvis_ty	pelvis_tz	hip_flexion_r	hip_adduction_r	hip_rotation_r	knee_angle_r	ankle_angle_r	subtalar_angle_r	mtp_angle_r	hip_flexion_l	hip_adduction_l	hip_rotation_l	knee_angle_l	ankle_angle_l	subtalar_angle_l	mtp_angle_l	lumbar_extension	lumbar_bending	lumbar_rotation
      1.11766667	      5.45484320	     -5.89785577	     -5.20899803	     -0.16317945	      1.00558250	      0.31344595	    -21.45360513	      5.69200873	     -4.76942739	     -4.32184592	      5.92716357	     -4.15195696	      3.67262071	     15.17956925	     -7.50952265	     -8.66989785	      5.30887654	      1.00024949	    -14.22338412	    -10.96080099	    -16.35733789	      5.85241620	      8.48963214
      1.12183333	      5.58028958	     -5.82153309	     -5.45484187	     -0.15740186	      1.00519195	      0.31367388	    -21.73690212	      5.42655256	     -4.63794450	     -4.71368540	      6.00588928	     -3.95037978	      3.75149350	     15.00960961	     -7.47027973	     -8.72758831	      5.04766234	      0.95301833	    -14.28572428	    -10.91721348	    -16.48645862	      5.62859673	      8.76275767
      1.12600000	      5.66320163	     -5.74475012	     -5.69458601	     -0.15159430	      1.00477553	      0.31392238	    -21.95807278	      5.16842005	     -4.49236667	     -5.13849866	      6.09135983	     -3.77868598	      3.82796841	     14.90395785	     -7.43583573	     -8.74878216	      4.68023821	      0.92522715	    -14.39489258	    -10.87270325	    -16.55233169	      5.39071949	      8.94343415
      1.13016667	      5.76157854	     -5.65537826	     -5.92557560	     -0.14576342	      1.00441071	      0.31415984	    -22.18478041	      4.89553070	     -4.35477416	     -5.57722945	      6.16718515	     -3.60478952	      3.89075606	     14.79553692	     -7.38375033	     -8.76408847	      4.22554679	      0.90161484	    -14.56033251	    -10.83630096	    -16.62521259	      5.13226939	      9.09750311
      1.13433333	      5.94852586	     -5.54162437	     -6.21151776	     -0.13990037	      1.00427321	      0.31448973	    -22.48583683	      4.56085997	     -4.21188349	     -6.03753613	      6.14754970	     -3.43395795	      4.06830623	     14.55415036	     -7.30772432	     -8.89358951	      3.77838435	      0.72540675	    -14.74920934	    -10.72625410	    -16.79947705	      4.81448764	      9.47798046
      1.13850000	      6.02220412	     -5.44333009	     -6.45168261	     -0.13404986	      1.00396136	      0.31470041	    -22.63421546	      4.26777422	     -4.08595709	     -6.56796945	      6.21174714	     -3.23555806	      4.13932318	     14.48226833	     -7.24479121	     -8.93837410	      3.21832980	      0.58778139	    -14.96652855	    -10.68589928	    -16.84408245	      4.56010449	      9.55481853
      1.14266667	      6.14807358	     -5.31305202	     -6.72853489	     -0.12813124	      1.00380111	      0.31496541	    -22.82278185	      3.91547542	     -3.96718693	     -7.11458948	      6.22193186	     -2.99697545	      4.24078161	     14.31513626	     -7.14461967	     -9.03436190	      2.68786031	      0.32366359	    -15.27422763	    -10.62830405	    -16.93293290	      4.23782252	      9.78234299
      1.14683333	      6.29789281	     -5.18370112	     -6.98953946	     -0.12222028	      1.00371769	      0.31518020	    -23.01796753	      3.56281825	     -3.86274271	     -7.68537742	      6.17280789	     -2.80669918	      4.36480518	     14.12287496	     -7.03409590	     -9.12662468	      2.14288304	     -0.00680641	    -15.60987702	    -10.55747307	    -17.04961667	      3.92344773	     10.02676263
      1.15100000	      6.53131585	     -5.05063499	     -7.22762343	     -0.11629545	      1.00379309	      0.31534494	    -23.29780227	      3.19799338	     -3.79541373	     -8.24997463	      6.04952278	     -2.64233581	      4.65648912	     13.82869147	     -6.89874344	     -9.21283021	      1.61325901	     -0.41782837	    -15.98854298	    -10.38392286	    -17.26371755	      3.58301004	     10.37259760
      1.15516667	      6.60868132	     -4.91257637	     -7.46598708	     -0.11031871	      1.00367978	      0.31546375	    -23.36656454	      2.84497852	     -3.72694551	     -8.90826634	      5.96641798	     -2.43510049	      4.77835980	     13.72539132	     -6.77443822	     -9.32477576	      1.02752011	     -0.82065463	    -16.28768815	    -10.31937440	    -17.28788929	      3.28909678	     10.42566179
      1.15933333	      6.75650771	     -4.75447327	     -7.69775875	     -0.10431362	      1.00371805	      0.31554315	    -23.49759314	      2.45668690	     -3.69482019	     -9.57571431	      5.83106828	     -2.21020788	      4.93961449	     13.51480880	     -6.60819175	     -9.41720577	      0.50706268	     -1.36575331	    -16.71995475	    -10.23588240	    -17.38318525	      2.94981732	     10.61591305
      1.16350000	      6.96547365	     -4.60195807	     -7.87527163	     -0.09834718	      1.00387052	      0.31548053	    -23.67771285	      2.07970974	     -3.71492286	    -10.26196665	      5.65418198	     -2.04098288	      5.26210405	     13.24236208	     -6.41661499	     -9.42525134	     -0.00535962	     -1.90929758	    -17.26777071	    -10.06516541	    -17.55824218	      2.61548904	     10.87892875
      1.16766667	      7.17448720	     -4.45102588	     -8.01838911	     -0.09235204	      1.00407248	      0.31530993	    -23.84243822	      1.70834477	     -3.78704702	    -10.96610104	      5.38808173	     -1.82152031	      5.90864679	     12.96513186	     -6.21381914	     -9.43189059	     -0.48135562	     -2.61641148	    -17.76570518	     -9.73096057	    -17.72973483	      2.30887906	     11.05397458
      1.17183333	      7.24087287	     -4.27657407	     -8.13520655	     -0.08624581	      1.00409154	      0.31507801	    -23.82506750	      1.34248727	     -3.90817694	    -11.72435609	      5.05841447	     -1.71578629	     13.02965519	     12.87570948	     -6.00290929	     -9.47968185	     -1.02350830	     -3.24853988	    -18.20097490	     -6.12944002	    -17.71073723	      2.00961869	     11.00463702
      1.17600000	      7.35652710	     -4.09991808	     -8.29860995	     -0.08018340	      1.00426296	      0.31493410	    -23.82113270	      0.95135318	     -3.95230686	    -12.55173249	      4.76717800	     -1.56054697	     13.06201603	     12.69972480	     -5.79389954	     -9.58206582	     -1.51906406	     -3.88799418	    -18.59626647	     -6.12259049	    -17.75785106	      1.68107406	     11.09169206
      1.18016667	      7.48802040	     -3.91648182	     -8.39924897	     -0.07411832	      1.00448431	      0.31461938	    -23.81700042	      0.56631136	     -4.07238390	    -13.40165460	      4.41110496	     -1.39390925	     13.13707818	     12.51159889	     -5.55237036	     -9.60202775	     -1.99102465	     -4.58203623	    -19.05568376	     -6.10467772	    -17.82453889	      1.36473628	     11.16377236
      1.18433333	      7.59470155	     -3.72530314	     -8.46560328	     -0.06803596	      1.00470743	      0.31422363	    -23.75868884	      0.18700738	     -4.22719102	    -14.29909370	      4.00947242	     -1.24668556	     13.24853723	     12.35976696	     -5.29853326	     -9.59931265	     -2.47178122	     -5.25335686	    -19.49176663	     -6.08047936	    -17.85793843	      1.05602019	     11.17452951
      1.18850000	      7.70226021	     -3.54178983	     -8.46393261	     -0.06197469	      1.00496063	      0.31366046	    -23.68204690	     -0.16583484	     -4.44586822	    -15.22688743	      3.54200201	     -1.08775255	     13.48036598	     12.21757257	     -5.03295194	     -9.50489067	     -2.94248582	     -5.96250268	    -19.96352841	     -6.03189862	    -17.90314436	      0.78060929	     11.15816996
      1.19266667	      7.75873630	     -3.33543062	     -8.50116371	     -0.05582553	      1.00520686	      0.31321831	    -23.51677282	     -0.54252446	     -4.61902638	    -16.20746212	      2.99208531	     -1.04266545	     13.56199762	     12.13407648	     -4.77775344	     -9.58374309	     -3.45935075	     -6.49053886	    -20.13917710	     -6.02058475	    -17.86865439	      0.48407593	     11.09539443
